# xmcd
#
# Track frame offsets: 
#        150
#        13857
#        29157
#        42042
#        56170
#        69417
#        83667
#        96362
#        110712
#        123232
#        136765
#        151120
#        163855
#        177012
#        190040
#        201630
#        214762
#        229742
#        243162
#        256172
#
# Disc length: 3551 seconds
#
# Revision: 0
# Processed by: cddbd v1.5.2PL0 Copyright (c) Steve Scherf et al.
# Submitted via: ExactAudioCopy v0.95a5
#
DISCID=130ddd14
DTITLE=Various Artist - Roots of the Blues - vol. 6 the early blues guitarist
DTITLE=s
DYEAR=1995
DGENRE=
TTITLE0=Sylvester Weaver - Guitar Rag
TTITLE1=Blind Willie Johnson - Mother's Children Have a Hard Time
TTITLE2=Lonnie Johnson - Away Down In The Alley blues
TTITLE3=Furry Lewwis - Dry Land Blues
TTITLE4=Mississippi John Hurt - Ain't No Tellin'
TTITLE5=Blind Willie McTell - Atlanta Strut
TTITLE6=Blind Blake - Police Dog Blues
TTITLE7=Willie Walker - South Carolina Rag
TTITLE8=Charley Jordan - Keep It Clean
TTITLE9=Skip James - Devil Got MY Woman
TTITLE10=Tampa Red - Boogie Woogie Woman
TTITLE11=Big Bill Broonzy - Long Tall Mama
TTITLE12=Leroy Carr and Scrapper Blackwell - Barrelhouse Woman No.2
TTITLE13=Carl Martin - Crow Jane
TTITLE14=Buddy Woods - Don't Sell It (Don't Give It Away)
TTITLE15=Bukka White - Special Stream Line
TTITLE16=Nat Cole and Oscar Moore - That Ain't Right
TTITLE17=Big Joe Williams - Meet Me Around The Corner
TTITLE18=Memphis Minnie and Little Son Joe - Black Rat Swing
TTITLE19=Charlie Christian - Guy's Got To GO
EXTD=
EXTT0=
EXTT1=
EXTT2=
EXTT3=
EXTT4=
EXTT5=
EXTT6=
EXTT7=
EXTT8=
EXTT9=
EXTT10=
EXTT11=
EXTT12=
EXTT13=
EXTT14=
EXTT15=
EXTT16=
EXTT17=
EXTT18=
EXTT19=
PLAYORDER=
